<svg height="512pt" viewBox="-37 0 512 512.01829" width="512pt" xmlns="http://www.w3.org/2000/svg"><path d="m286.929688 512.007812c-3.308594 0-10.46875-7.824218-12.871094-10-4.207032-3.804687-8.128906-7.945312-11.703125-12.351562-7.207031-8.886719-13.003907-18.898438-17.136719-29.570312-19.125-49.472657.90625-107.425782 46.585938-134.316407 1.078124-.632812 2.15625-1.242187 3.246093-1.839843 4.378907-12.449219 6.875-27.234376 7.429688-43.992188.25-7.460938 3.523437-14.429688 9.21875-19.621094 9.488281-8.621094 28.269531-30.328125 41.140625-54.757812 9.609375-18.238282-1.140625-29.21875-11.867188-35.234375-8.015625-4.480469-13.0625-13.660157-13.144531-23.945313-1.253906-132.105468-101.796875-146.378906-144.972656-146.378906-43.308594 0-144.136719 14.308594-144.96875 146.878906-.0625 10.105469-5.144531 19.117188-13.265625 23.515625-5.429688 2.925781-12.378906 8.148438-14.699219 16.359375-1.804687 6.351563-.488281 13.464844 3.921875 21.101563 12.507812 21.703125 30.023438 43.214843 40.152344 52.433593 5.625 5.109376 8.988281 12.378907 9.253906 19.96875 1.949219 55.914063 24.621094 75.308594 37.96875 81.890626 12.867188 6.328124 20.867188 18.277343 20.867188 31.167968 0 15.535156-7.855469 29.824219-21.011719 38.207032l-2.339844 1.070312-76.28125 22.382812c-13.328125 5.273438-22.4453125 18.570313-22.4453125 33.597657 0 12.910156 10.5078125 23.425781 23.4257815 23.425781.007812.007812 263.46875.007812 263.496094.007812zm0 0"/><path d="m347.445312 329.152344c-46.140624 0-85.804687 35.949218-90.84375 81.726562-4.878906 44.378906 25.171876 86.847656 68.273438 97.902344 7.027344 1.800781 14.269531 2.753906 21.519531 2.835938l.019531.347656c.347657 0 .675782.054687 1.023438.054687 50.414062 0 91.429688-41.015625 91.429688-91.429687 0-50.414063-41.007813-91.4375-91.421876-91.4375zm54.859376 100.570312h-45.714844v45.714844c0 5.054688-4.097656 9.144531-9.144532 9.144531-5.046874 0-9.140624-4.089843-9.140624-9.144531v-45.714844h-45.714844c-5.046875 0-9.144532-4.085937-9.144532-9.140625 0-5.058593 4.097657-9.144531 9.144532-9.144531h45.714844v-45.714844c0-5.054687 4.09375-9.140625 9.140624-9.140625 5.046876 0 9.144532 4.085938 9.144532 9.140625v45.714844h45.714844c5.046874 0 9.140624 4.085938 9.140624 9.144531 0 5.054688-4.09375 9.140625-9.140624 9.140625zm0 0"/></svg>