<svg height="512pt" viewBox="-37 0 512 512.00914" width="512pt" xmlns="http://www.w3.org/2000/svg"><path d="m286.925781 512.007812c-3.308593 0-10.46875-7.824218-12.875-10-4.203125-3.804687-8.125-7.945312-11.699219-12.351562-7.207031-8.886719-13.003906-18.898438-17.136718-29.570312-19.125-49.472657.90625-107.425782 46.585937-134.316407 1.078125-.632812 2.15625-1.242187 3.242188-1.839843 4.382812-12.449219 6.878906-27.234376 7.433593-43.992188.246094-7.460938 3.519532-14.429688 9.21875-19.621094 9.488282-8.621094 28.269532-30.328125 41.140626-54.757812 9.609374-18.238282-1.140626-29.21875-11.867188-35.234375-8.019531-4.480469-13.066406-13.660157-13.148438-23.945313-1.25-132.105468-101.796874-146.378906-144.96875-146.378906-43.308593 0-144.136718 14.308594-144.96875 146.878906-.0625 10.105469-5.148437 19.117188-13.265624 23.515625-5.429688 2.925781-12.378907 8.148438-14.703126 16.359375-1.800781 6.351563-.484374 13.464844 3.921876 21.101563 12.507812 21.703125 30.027343 43.214843 40.15625 52.433593 5.625 5.109376 8.988281 12.378907 9.253906 19.96875 1.945312 55.914063 24.621094 75.308594 37.96875 81.890626 12.863281 6.328124 20.863281 18.277343 20.863281 31.167968 0 15.535156-7.851563 29.824219-21.007813 38.207032l-2.339843 1.070312-76.28125 22.382812c-13.328125 5.273438-22.44531275 18.570313-22.44531275 33.597657 0 12.910156 10.50390575 23.425781 23.42578175 23.425781.007812.007812 263.46875.007812 263.496093.007812zm0 0"/><path d="m347.441406 329.152344c-46.152344 0-85.804687 35.941406-90.84375 81.726562-4.882812 44.378906 25.171875 86.839844 68.269532 97.894532 7.03125 1.800781 14.273437 2.75 21.523437 2.832031l.019531.347656c.347656 0 .675782.054687 1.023438.054687 50.414062 0 91.429687-41.011718 91.429687-91.425781 0-50.414062-41.007812-91.429687-91.421875-91.429687zm54.859375 100.570312h-109.714843c-5.046876 0-9.144532-4.085937-9.144532-9.140625 0-5.058593 4.097656-9.144531 9.144532-9.144531h109.714843c5.046875 0 9.140625 4.085938 9.140625 9.144531 0 5.054688-4.09375 9.140625-9.140625 9.140625zm0 0"/></svg>